<?xml version="1.0" standalone="no"?>
<!DOCTYPE svg PUBLIC "-//W3C//DTD SVG 20010904//EN"
 "http://www.w3.org/TR/2001/REC-SVG-20010904/DTD/svg10.dtd">
<svg version="1.0" xmlns="http://www.w3.org/2000/svg"
 width="512.000000pt" height="512.000000pt" viewBox="0 0 512.000000 512.000000"
 preserveAspectRatio="xMidYMid meet">
<metadata>
Created by potrace 1.11, written by Peter Selinger 2001-2013
</metadata>
<g transform="translate(0.000000,512.000000) scale(0.100000,-0.100000)"
fill="#000000" stroke="none">
<path d="M1984 3934 c-156 -105 -185 -305 -63 -435 76 -81 126 -96 189 -58
125 76 177 240 115 363 -31 63 -49 84 -104 124 -53 39 -86 40 -137 6z m119
-179 c24 -70 12 -136 -38 -200 -15 -19 -15 -19 -34 0 -23 26 -51 97 -51 134 0
37 18 89 44 123 l20 28 22 -21 c13 -12 29 -41 37 -64z"/>
<path d="M1089 3901 c-54 -44 -7 -202 89 -295 60 -58 76 -69 159 -110 89 -43
153 -59 285 -70 43 -4 80 -27 457 -297 l410 -294 0 -137 1 -137 -110 80 c-129
93 -148 102 -189 88 -47 -16 -50 -47 -10 -81 41 -34 21 -20 199 -148 121 -87
151 -104 182 -104 69 -1 67 -17 68 509 0 259 -4 475 -8 482 -4 6 -20 16 -35
22 -29 11 -75 0 -89 -22 -4 -7 -8 -103 -8 -214 l0 -202 -227 164 c-126 90
-292 210 -369 266 -139 100 -142 102 -146 144 -13 112 -115 229 -261 299 -106
51 -168 66 -289 72 -72 3 -90 1 -109 -15z m249 -107 c116 -38 224 -122 256
-199 27 -65 23 -73 -31 -64 -145 22 -280 108 -334 211 -10 21 -19 47 -19 58 0
20 4 21 43 15 23 -4 61 -13 85 -21z"/>
<path d="M1291 3349 c-99 -19 -222 -86 -229 -123 -8 -39 96 -104 210 -131 101
-23 265 -15 354 19 79 30 144 78 144 106 0 31 -85 87 -179 116 -55 18 -237 25
-300 13z m274 -114 l40 -18 -60 -19 c-35 -11 -88 -19 -128 -19 -71 0 -190 28
-181 42 24 39 250 49 329 14z"/>
<path d="M2995 3180 c-159 -126 -171 -320 -28 -450 30 -28 65 -53 78 -56 61
-15 159 60 204 156 33 72 33 159 0 227 -29 59 -43 76 -98 119 -58 45 -103 46
-156 4z m110 -128 c37 -56 43 -126 17 -186 -12 -25 -28 -53 -35 -61 -13 -12
-17 -11 -35 8 -54 59 -62 156 -18 231 15 25 31 46 36 46 5 0 21 -17 35 -38z"/>
<path d="M3794 3155 c-207 -45 -380 -183 -415 -330 -6 -27 -15 -57 -18 -65 -4
-8 -139 -109 -299 -225 -342 -246 -314 -226 -377 -271 l-50 -35 -8 25 c-15 45
-103 54 -129 13 -4 -7 -8 -234 -8 -504 0 -271 -3 -493 -7 -494 -5 0 -71 -2
-148 -3 -77 -1 -148 -6 -157 -10 -28 -13 -33 -46 -10 -69 20 -19 31 -20 393
-19 355 1 373 1 392 20 22 22 17 55 -11 68 -9 4 -80 9 -157 10 -77 1 -143 3
-147 3 -5 1 -8 185 -8 410 l0 409 53 36 c28 20 97 69 153 108 55 40 163 118
240 173 76 55 141 102 144 105 3 3 19 15 37 27 214 150 194 140 274 146 117 9
190 30 285 83 148 81 234 199 235 322 1 69 -18 82 -115 81 -45 0 -108 -7 -142
-14z m109 -130 c-23 -70 -101 -149 -187 -189 -66 -31 -152 -56 -196 -56 -18 0
-18 2 -4 44 40 116 219 236 364 244 l39 3 -16 -46z"/>
<path d="M3718 2615 c-2 -1 -37 -5 -78 -8 -83 -7 -121 -17 -196 -53 -108 -52
-119 -89 -41 -141 169 -113 467 -106 625 15 17 13 32 32 32 41 0 33 -78 87
-165 115 -44 14 -171 36 -177 31z m70 -110 c57 -9 105 -26 95 -35 -4 -5 -32
-15 -61 -24 -85 -25 -292 -8 -292 25 0 12 43 29 95 36 22 3 41 6 43 8 3 3 74
-3 120 -10z"/>
</g>
</svg>
