<?xml version="1.0" standalone="no"?>
<!DOCTYPE svg PUBLIC "-//W3C//DTD SVG 20010904//EN"
 "http://www.w3.org/TR/2001/REC-SVG-20010904/DTD/svg10.dtd">
<svg version="1.0" xmlns="http://www.w3.org/2000/svg"
 width="512.000000pt" height="512.000000pt" viewBox="0 0 512.000000 512.000000"
 preserveAspectRatio="xMidYMid meet">
<metadata>
Created by potrace 1.11, written by Peter Selinger 2001-2013
</metadata>
<g transform="translate(0.000000,512.000000) scale(0.100000,-0.100000)"
fill="#000000" stroke="none">
<path d="M1140 4676 c-298 -53 -539 -182 -748 -400 -183 -192 -305 -426 -364
-699 -32 -150 -32 -410 0 -556 30 -134 62 -222 125 -345 73 -143 148 -239 347
-441 1140 -1159 1967 -1993 1988 -2004 35 -19 109 -19 144 0 36 19 2103 2113
2179 2208 148 183 240 378 286 608 26 132 24 395 -5 530 -94 435 -374 805
-747 982 -183 88 -321 120 -540 128 -192 7 -316 -10 -471 -62 -240 -80 -406
-192 -641 -434 l-132 -136 -148 150 c-178 180 -288 265 -448 345 -213 105
-318 130 -570 135 -121 3 -205 0 -255 -9z"/>
</g>
</svg>
