<svg width="58" height="54" viewBox="0 0 58 54" fill="none" xmlns="http://www.w3.org/2000/svg">
    <path d="M35.4676 51.907H30.2132V36.1359L46.1661 24.6746C46.3122 24.6795 46.4588 24.6825 46.6055 24.6825C49.3749 24.6825 52.1864 23.8038 54.319 22.2717C56.698 20.5625 57.9351 18.2428 57.6282 16.0665C57.5653 15.6205 57.0745 15.2678 56.4538 15.2227C56.1507 15.2005 55.8404 15.1895 55.5309 15.1895C52.7609 15.1895 49.9493 16.0682 47.8168 17.6003C45.6478 19.1587 44.4323 21.2243 44.4666 23.2261L30.2132 33.4665V33.0316C30.2132 32.5105 29.625 32.0879 28.8995 32.0879C28.1741 32.0879 27.5859 32.5105 27.5859 33.0316V35.7446C27.5859 35.7449 27.5859 35.745 27.5859 35.7452V51.907H22.3314C21.606 51.907 21.0178 52.3296 21.0178 52.8508C21.0178 53.372 21.606 53.7946 22.3314 53.7946H35.4676C36.1931 53.7946 36.7812 53.372 36.7812 52.8508C36.7812 52.3296 36.1931 51.907 35.4676 51.907ZM49.6746 18.935C51.1861 17.849 53.113 17.1889 55.0297 17.0901C54.8929 18.4568 53.9777 19.8475 52.4609 20.937C50.9494 22.0231 49.0224 22.6831 47.106 22.782C47.2427 21.4154 48.158 20.0246 49.6746 18.935Z"
          fill="currentColor"/>
    <path d="M6.85455 11.571C4.24603 11.571 1.79416 12.3587 0.295811 13.6779C-0.0986036 14.0251 -0.0986036 14.524 0.295811 14.8712C1.79416 16.1904 4.2462 16.978 6.85455 16.978C9.46308 16.978 11.9149 16.1903 13.4135 14.8712C13.8079 14.524 13.8079 14.0251 13.4135 13.6779C11.9149 12.3587 9.46308 11.571 6.85455 11.571ZM6.85455 15.0906C5.48625 15.0906 4.19464 14.7945 3.21008 14.2746C4.19464 13.7547 5.48625 13.4586 6.85455 13.4586C8.22285 13.4586 9.51464 13.7547 10.499 14.2746C9.51464 14.7945 8.22285 15.0906 6.85455 15.0906Z"
          fill="currentColor"/>
    <path d="M18.2169 10.2266C18.4586 10.3683 18.753 10.4392 19.0474 10.4392C19.3418 10.4392 19.636 10.3683 19.8779 10.2266C21.8278 9.08372 22.9918 7.21176 22.9918 5.21958C22.9918 3.2274 21.8278 1.35543 19.8779 0.212525C19.3945 -0.0708417 18.7004 -0.0708417 18.217 0.212525C16.2671 1.35555 15.1031 3.2274 15.1031 5.21958C15.1031 7.21176 16.267 9.0836 18.2169 10.2266ZM19.0474 2.29118C19.8853 3.07156 20.3644 4.11395 20.3644 5.21958C20.3644 6.3252 19.8853 7.36759 19.0474 8.14797C18.2093 7.36759 17.7302 6.3252 17.7302 5.21958C17.7302 4.11395 18.2093 3.07156 19.0474 2.29118Z"
          fill="currentColor"/>
    <path d="M57.5033 28.0702C56.0048 26.751 53.5529 25.9634 50.9446 25.9634C48.3359 25.9634 45.8842 26.7511 44.3857 28.0702C43.9912 28.4174 43.9912 28.9163 44.3857 29.2635C45.8842 30.5828 48.336 31.3704 50.9446 31.3704C53.5531 31.3704 56.0048 30.5827 57.5033 29.2635C57.8979 28.9163 57.8979 28.4175 57.5033 28.0702ZM50.9446 29.4829C49.5763 29.4829 48.2845 29.1868 47.3001 28.6669C48.2845 28.147 49.5763 27.8509 50.9446 27.8509C52.3129 27.8509 53.6045 28.147 54.5889 28.6669C53.6045 29.1868 52.3129 29.4829 50.9446 29.4829Z"
          fill="currentColor"/>
    <path d="M37.9212 24.6192C38.1629 24.7609 38.4573 24.8318 38.7517 24.8318C39.0462 24.8318 39.3406 24.7609 39.5823 24.6192C41.5322 23.4762 42.6962 21.6042 42.6962 19.6122C42.6962 17.6201 41.5322 15.7481 39.5823 14.6051C39.099 14.3217 38.4046 14.3217 37.9214 14.6051C35.9715 15.7481 34.8074 17.6201 34.8074 19.6122C34.8074 21.6042 35.9713 23.4762 37.9212 24.6192ZM38.7517 16.6838C39.5898 17.4643 40.0688 18.5065 40.0688 19.6122C40.0688 20.7178 39.5897 21.7601 38.7517 22.5405C37.9137 21.7601 37.4347 20.7178 37.4347 19.6122C37.4347 18.5065 37.9137 17.4643 38.7517 16.6838Z"
          fill="currentColor"/>
    <path d="M23.2603 23.8706C22.7473 23.5022 21.9157 23.5022 21.4027 23.8706C20.8896 24.2393 20.8896 24.8367 21.4027 25.2054L27.9708 29.9242C27.9741 29.9266 27.9777 29.9285 27.9808 29.9308C28.0084 29.9503 28.0368 29.969 28.0667 29.9866C28.0824 29.9959 28.099 30.004 28.1153 30.0127C28.1335 30.0225 28.1512 30.0325 28.1701 30.0416C28.189 30.0507 28.2086 30.0585 28.2279 30.0668C28.2453 30.0743 28.2624 30.0822 28.2805 30.0891C28.3 30.0967 28.3202 30.103 28.3402 30.1098C28.3591 30.1161 28.3777 30.123 28.3971 30.1288C28.4163 30.1345 28.436 30.1391 28.4557 30.1442C28.4765 30.1496 28.4972 30.1553 28.5186 30.16C28.5381 30.1643 28.558 30.1673 28.5777 30.171C28.5995 30.1749 28.621 30.1794 28.6432 30.1824C28.666 30.1857 28.689 30.1876 28.712 30.19C28.7314 30.192 28.7504 30.1947 28.7701 30.196C28.8131 30.1991 28.8565 30.2007 28.8997 30.2007C28.943 30.2007 28.9862 30.1991 29.0294 30.196C29.0488 30.1946 29.0677 30.192 29.0867 30.1901C29.11 30.1878 29.1333 30.1857 29.1565 30.1824C29.1783 30.1794 29.1993 30.175 29.2209 30.1711C29.2411 30.1675 29.2614 30.1643 29.2813 30.1599C29.302 30.1554 29.322 30.1498 29.3424 30.1446C29.3626 30.1394 29.3829 30.1345 29.4028 30.1287C29.4213 30.1231 29.4392 30.1166 29.4573 30.1105C29.4782 30.1034 29.499 30.0968 29.5194 30.089C29.5361 30.0825 29.5521 30.0752 29.5683 30.0683C29.5888 30.0595 29.6095 30.0511 29.6296 30.0415C29.6466 30.0333 29.6626 30.0241 29.679 30.0154C29.697 30.0058 29.7154 29.9968 29.7328 29.9864C29.7565 29.9725 29.7787 29.9574 29.8008 29.9423C29.8099 29.9361 29.8197 29.9306 29.8286 29.9242C29.8378 29.9176 29.8456 29.9103 29.8547 29.9034C29.8752 29.8878 29.8959 29.8722 29.9149 29.8555C29.9299 29.8425 29.943 29.8288 29.9568 29.8152C29.9683 29.8039 29.9806 29.793 29.9915 29.7813C30.0054 29.7664 30.0176 29.7509 30.0302 29.7356C30.0394 29.7245 30.0491 29.7136 30.0576 29.7022C30.069 29.687 30.0786 29.6713 30.0888 29.6557C30.0969 29.6433 30.1056 29.631 30.113 29.6183C30.1215 29.6034 30.1286 29.5881 30.1361 29.573C30.143 29.5591 30.1506 29.5454 30.1565 29.5311C30.1629 29.5159 30.1676 29.5005 30.1729 29.4851C30.178 29.4706 30.1836 29.4563 30.1877 29.4416C30.1926 29.4238 30.1956 29.4057 30.1992 29.3877C30.2016 29.3752 30.2049 29.3629 30.2067 29.3503C30.211 29.319 30.2133 29.2876 30.2133 29.2563V21.3534V21.3522V11.4432C30.2133 10.922 29.6251 10.4994 28.8997 10.4994C28.1742 10.4994 27.5861 10.922 27.5861 11.4432V19.0743L13.3328 8.83403C13.367 6.83218 12.1514 4.76662 9.98241 3.20834C7.84975 1.67613 5.03812 0.797363 2.26819 0.797363C1.95883 0.797363 1.64832 0.808571 1.3452 0.830631C0.724355 0.875814 0.233554 1.22843 0.170664 1.67436C-0.13623 3.85057 1.10087 6.17024 3.48 7.87964C5.61233 9.41162 8.4238 10.2904 11.1936 10.2904C11.34 10.2904 11.487 10.2874 11.6331 10.2825L27.5859 21.7437V26.9783L23.2603 23.8706ZM2.76917 2.69788C4.68574 2.79674 6.61282 3.45679 8.1243 4.54295C9.64087 5.63241 10.5563 7.02317 10.6929 8.38975C8.77651 8.29089 6.84927 7.63084 5.33778 6.5448C3.82121 5.45534 2.90578 4.06457 2.76917 2.69788Z"
          fill="currentColor"/>
</svg>
