<?xml version="1.0" encoding="utf-8"?><svg xmlns="http://www.w3.org/2000/svg" xmlns:xlink="http://www.w3.org/1999/xlink"><symbol fill="none" viewBox="0 0 168 164" id="bg-note" xmlns="http://www.w3.org/2000/svg"><g opacity=".1" fill="#fff"><path d="M17.486 22.36c1.938 0 3.51-1.673 3.51-3.738s-1.572-3.738-3.51-3.738c-1.939 0-3.51 1.673-3.51 3.738s1.571 3.738 3.51 3.738zm14.008 0c1.938 0 3.51-1.673 3.51-3.738s-1.572-3.738-3.51-3.738c-1.939 0-3.51 1.673-3.51 3.738s1.571 3.738 3.51 3.738zm14.008 0c1.939 0 3.51-1.673 3.51-3.738s-1.571-3.738-3.51-3.738c-1.939 0-3.51 1.673-3.51 3.738s1.571 3.738 3.51 3.738zm-7.021 52.163h76.996c1.936 0 3.511-1.677 3.511-3.738s-1.575-3.739-3.511-3.739H38.481c-1.935 0-3.51 1.677-3.51 3.739 0 2.061 1.575 3.738 3.51 3.738zm41.992 37.279H38.481c-1.935 0-3.51 1.677-3.51 3.739 0 2.061 1.575 3.738 3.51 3.738h41.992c1.936 0 3.51-1.677 3.51-3.738 0-2.062-1.574-3.739-3.51-3.739z"/><path d="M154.582 44.72c-.197 0-.393.07-.59.07V14.92c0-8.21-6.266-14.919-14.008-14.919H14.008C6.266 0 0 6.673 0 14.919V149.08C0 157.292 6.266 164 14.008 164h125.976c7.709 0 14.008-6.673 14.008-14.919V79.799l10.071-10.726c2.494-2.655 3.937-6.324 3.937-10.097-.033-7.861-6.036-14.255-13.418-14.255zM6.988 14.92c0-4.123 3.15-7.442 6.987-7.442h125.976c3.871 0 6.987 3.354 6.987 7.442v14.918H6.988V14.92zM146.97 149.08c0 4.123-3.149 7.442-6.987 7.442H14.008c-3.87 0-6.987-3.354-6.987-7.442V37.279h139.95v9.992c-.656.49-1.312 1.014-1.87 1.642l-38.088 40.529H38.482c-1.936 0-3.51 1.677-3.51 3.738 0 2.062 1.574 3.739 3.51 3.739h62.922l-3.347 17.888c-.23 1.223.132 2.481.952 3.354a3.425 3.425 0 002.46 1.083c.23 0 .46-.035.689-.07l17.486-3.738a3.39 3.39 0 001.804-1.013l25.523-27.182v61.84zm-29.722-40.703l-11.318 2.411 2.263-12.054 31.757-33.82 9.054 9.643-31.756 33.82zm41.861-44.58l-5.118 5.45-9.055-9.643 5.118-5.45c1.181-1.258 2.821-1.992 4.527-1.992 3.543 0 6.398 3.074 6.398 6.813 0 1.816-.689 3.563-1.87 4.821z"/></g></symbol><symbol fill="none" viewBox="0 0 58 54" id="logo" xmlns="http://www.w3.org/2000/svg"><path d="M35.468 51.907h-5.255V36.136l15.953-11.461c.146.005.293.008.44.008 2.769 0 5.58-.88 7.713-2.411 2.379-1.71 3.616-4.03 3.31-6.205-.064-.447-.554-.8-1.175-.844a12.686 12.686 0 00-.923-.034c-2.77 0-5.582.88-7.714 2.411-2.17 1.559-3.385 3.624-3.35 5.626l-14.254 10.24v-.434c0-.521-.588-.944-1.314-.944-.725 0-1.313.422-1.313.944v18.875H22.33c-.725 0-1.313.423-1.313.944 0 .521.588.944 1.313.944h13.137c.725 0 1.313-.423 1.313-.944 0-.521-.588-.944-1.313-.944zm14.207-32.972c1.511-1.086 3.438-1.746 5.355-1.845-.137 1.367-1.052 2.758-2.57 3.847-1.51 1.086-3.438 1.746-5.354 1.845.137-1.367 1.052-2.757 2.569-3.847zm-42.82-7.364c-2.609 0-5.06.788-6.56 2.107-.394.347-.394.846 0 1.193 1.5 1.32 3.951 2.107 6.56 2.107 2.608 0 5.06-.788 6.559-2.107.394-.347.394-.846 0-1.193-1.5-1.32-3.95-2.107-6.56-2.107zm0 3.52c-1.369 0-2.66-.296-3.645-.816.985-.52 2.276-.816 3.645-.816 1.368 0 2.66.296 3.644.816-.984.52-2.276.816-3.644.816zm11.362-4.864c.242.141.536.212.83.212.295 0 .589-.07.83-.212 1.95-1.143 3.115-3.015 3.115-5.007 0-1.993-1.164-3.865-3.114-5.007a1.729 1.729 0 00-1.661 0c-1.95 1.143-3.114 3.014-3.114 5.007 0 1.992 1.164 3.864 3.114 5.007zm.83-7.936c.838.78 1.317 1.823 1.317 2.929 0 1.105-.479 2.148-1.317 2.928-.838-.78-1.317-1.823-1.317-2.928 0-1.106.48-2.148 1.317-2.929z" fill="currentColor"/><path d="M57.503 28.07c-1.498-1.319-3.95-2.107-6.558-2.107-2.61 0-5.06.788-6.56 2.107-.394.347-.394.846 0 1.194 1.5 1.319 3.951 2.106 6.56 2.106 2.608 0 5.06-.787 6.558-2.107.395-.347.395-.846 0-1.193zm-6.558 1.413c-1.369 0-2.66-.296-3.645-.816.985-.52 2.276-.816 3.645-.816 1.368 0 2.66.296 3.644.816-.984.52-2.276.816-3.644.816zM37.921 24.62c.242.14.536.212.83.212.295 0 .59-.071.831-.213 1.95-1.143 3.114-3.015 3.114-5.007 0-1.992-1.164-3.864-3.114-5.007a1.729 1.729 0 00-1.66 0c-1.95 1.143-3.115 3.015-3.115 5.007 0 1.992 1.164 3.864 3.114 5.007zm.83-7.936c.839.78 1.318 1.822 1.318 2.928 0 1.106-.48 2.148-1.317 2.929-.838-.78-1.317-1.823-1.317-2.929 0-1.105.479-2.148 1.317-2.928zM23.26 23.87c-.513-.368-1.344-.368-1.857 0-.513.37-.513.967 0 1.335l6.568 4.72c.003.002.007.003.01.006.027.02.056.038.086.056l.048.026.055.029.058.025.052.022c.02.008.04.014.06.02l.057.02.059.015.063.016.059.011.065.011a.81.81 0 00.069.008c.02.002.038.005.058.006a1.806 1.806 0 00.26 0l.057-.006a.883.883 0 00.07-.008l.064-.01.06-.012.061-.015.06-.016.055-.019c.021-.007.042-.013.062-.021l.05-.02.06-.027.05-.027c.018-.01.036-.018.054-.029l.068-.044c.009-.006.019-.011.028-.018l.026-.02.06-.049c.015-.012.028-.026.042-.04.011-.011.024-.022.034-.034l.04-.045c.008-.012.018-.022.027-.034.011-.015.02-.03.03-.046.009-.013.018-.025.025-.038.009-.015.016-.03.023-.045.007-.014.015-.028.02-.042a.361.361 0 00.017-.046l.015-.043a.517.517 0 00.011-.054l.008-.038a.69.69 0 00.006-.094V11.443c0-.521-.588-.944-1.313-.944-.726 0-1.314.423-1.314.944v7.631L13.333 8.834c.034-2.002-1.182-4.067-3.35-5.626C7.85 1.676 5.037.798 2.267.798c-.31 0-.62.01-.923.033-.62.045-1.111.397-1.174.843-.306 2.177.93 4.496 3.31 6.206 2.132 1.532 4.944 2.41 7.714 2.41.146 0 .293-.003.44-.007l15.952 11.46v5.235l-4.326-3.107zM2.77 2.699c1.916.099 3.843.759 5.354 1.845 1.517 1.09 2.432 2.48 2.569 3.847-1.916-.1-3.844-.76-5.355-1.845-1.517-1.09-2.432-2.48-2.569-3.847z" fill="currentColor"/></symbol><symbol fill="none" viewBox="0 0 26 26" id="popup-close" xmlns="http://www.w3.org/2000/svg"><path d="M25.276 23.26L2.648.633l-1.94 1.94L23.337 25.2l1.94-1.94z" fill="#272526"/><path d="M23.338.632L.711 23.26l1.94 1.94L25.278 2.572l-1.94-1.94z" fill="#272526"/></symbol></svg>