<svg width="168" height="164" viewBox="0 0 168 164" fill="none" xmlns="http://www.w3.org/2000/svg">
<g opacity="0.1">
<path d="M17.4856 22.3604C19.4243 22.3604 20.9959 20.6867 20.9959 18.6221C20.9959 16.5574 19.4243 14.8837 17.4856 14.8837C15.547 14.8837 13.9754 16.5574 13.9754 18.6221C13.9754 20.6867 15.547 22.3604 17.4856 22.3604Z" fill="white"/>
<path d="M31.4939 22.3604C33.4325 22.3604 35.0041 20.6867 35.0041 18.6221C35.0041 16.5574 33.4325 14.8837 31.4939 14.8837C29.5552 14.8837 27.9836 16.5574 27.9836 18.6221C27.9836 20.6867 29.5552 22.3604 31.4939 22.3604Z" fill="white"/>
<path d="M45.5021 22.3604C47.4407 22.3604 49.0123 20.6867 49.0123 18.6221C49.0123 16.5574 47.4407 14.8837 45.5021 14.8837C43.5634 14.8837 41.9918 16.5574 41.9918 18.6221C41.9918 20.6867 43.5634 22.3604 45.5021 22.3604Z" fill="white"/>
<path d="M38.4815 74.5232H115.477C117.413 74.5232 118.988 72.8462 118.988 70.7848C118.988 68.7235 117.413 67.0464 115.477 67.0464H38.4815C36.546 67.0464 34.9713 68.7235 34.9713 70.7848C34.9713 72.8462 36.546 74.5232 38.4815 74.5232Z" fill="white"/>
<path d="M80.4734 111.802H38.4815C36.546 111.802 34.9713 113.479 34.9713 115.541C34.9713 117.602 36.546 119.279 38.4815 119.279H80.4734C82.4089 119.279 83.9836 117.602 83.9836 115.541C83.9836 113.479 82.4089 111.802 80.4734 111.802Z" fill="white"/>
<path d="M154.582 44.7209C154.385 44.7209 154.189 44.7908 153.992 44.7908V14.9186C153.992 6.70814 147.726 0 139.984 0H14.0082C6.26596 0 0 6.6732 0 14.9186V149.081C0 157.292 6.26596 164 14.0082 164H139.984C147.693 164 153.992 157.327 153.992 149.081V79.7989L164.063 69.0729C166.557 66.4176 168 62.749 168 58.9757C167.967 51.1146 161.964 44.7209 154.582 44.7209ZM6.9877 14.9186C6.9877 10.7959 10.1371 7.47678 13.9754 7.47678H139.951C143.822 7.47678 146.938 10.8308 146.938 14.9186V29.8372H6.9877V14.9186ZM146.971 149.081C146.971 153.204 143.822 156.523 139.984 156.523H14.0082C10.1371 156.523 7.0205 153.169 7.0205 149.081V37.2791H146.971V47.2714C146.315 47.7605 145.659 48.2846 145.101 48.9135L107.013 89.4418H38.4816C36.546 89.4418 34.9713 91.1189 34.9713 93.1802C34.9713 95.2416 36.546 96.9186 38.4816 96.9186H101.404L98.0574 114.807C97.8278 116.03 98.1886 117.288 99.0088 118.161C99.6649 118.86 100.583 119.244 101.469 119.244C101.699 119.244 101.929 119.209 102.158 119.174L119.644 115.436C120.333 115.296 120.956 114.947 121.448 114.423L146.971 87.2407V149.081ZM117.249 108.378L105.931 110.789L108.194 98.7354L139.951 64.9152L149.005 74.5582L117.249 108.378ZM159.11 63.7972L153.992 69.2476L144.937 59.6046L150.055 54.1542C151.236 52.8965 152.876 52.1628 154.582 52.1628C158.125 52.1628 160.98 55.2373 160.98 58.9757C160.98 60.7925 160.291 62.5394 159.11 63.7972Z" fill="white"/>
</g>
</svg>
